<svg width="62" height="35" viewBox="0 0 62 35" fill="none" xmlns="http://www.w3.org/2000/svg">
<path d="M7.6196 27.1966C2.8393 27.1966 0.208984 25.1346 0.208984 21.3776C0.208984 17.4982 2.75579 15.7014 8.22517 15.7014H12.5255V13.6595C12.5255 11.3929 11.1267 10.4537 7.72415 10.4537C5.90761 10.4233 4.09741 10.6713 2.35934 11.1888L2.08778 11.291V8.30819L2.233 8.26735C3.96872 7.77252 5.77135 7.53903 7.57894 7.57491C13.1318 7.57491 15.8246 9.55565 15.8246 13.6595V21.0712C15.8238 25.2979 13.2977 27.1966 7.6196 27.1966ZM8.26692 18.3145C4.84334 18.3145 3.50731 19.1721 3.50731 21.3773C3.50731 23.3783 4.84334 24.3583 7.57821 24.3583C10.7095 24.3583 12.5466 23.8072 12.5466 20.9689V18.3145H8.26692Z" fill="#7500E5"/>
<path d="M7.57798 7.77914C12.2958 7.77914 15.6149 9.20841 15.6149 13.6596V21.0712C15.6149 25.2571 13.0891 26.9925 7.61973 26.9925C3.52814 26.9925 0.41751 25.4613 0.41751 21.3777C0.41751 17.3757 3.21482 15.9056 8.22494 15.9056H12.734V13.6596C12.734 10.9644 10.7511 10.2506 7.72393 10.2506C5.8851 10.2174 4.0527 10.4724 2.2963 11.0059V8.45383C4.01082 7.96416 5.7924 7.73658 7.57798 7.77914V7.77914ZM7.57798 24.5629C10.7928 24.5629 12.7551 23.9706 12.7551 20.9693V18.1108H8.26669C4.92661 18.1108 3.29832 18.9275 3.29832 21.3777C3.29832 23.9095 5.36518 24.5629 7.57798 24.5629V24.5629ZM7.57798 7.37077C5.74958 7.32294 3.92489 7.55722 2.17105 8.06499L1.87879 8.14667V11.5769L2.42337 11.3933C4.13936 10.8757 5.92845 10.6276 7.72393 10.6583C10.9805 10.6583 12.3165 11.5364 12.3165 13.6599V15.4976H8.22494C4.69716 15.4976 0 16.1101 0 21.378C0 25.2575 2.71381 27.4016 7.61973 27.4016C10.5005 27.4016 12.567 26.9321 13.9241 25.9315C15.3437 24.8903 16.0324 23.3179 16.0324 21.0719V13.6596C16.0324 11.4136 15.218 9.73928 13.5901 8.69778C12.1916 7.79938 10.2293 7.37077 7.57798 7.37077V7.37077ZM7.57798 24.1545C4.11265 24.1545 3.71583 22.5619 3.71583 21.3777C3.71583 19.6625 4.48841 18.5191 8.26669 18.5191H12.3372V20.9693C12.3372 23.3378 11.1264 24.1545 7.57762 24.1545H7.57798Z" fill="#7500E5"/>
<path d="M26.8458 27.1972C21.1459 27.1972 18.2451 24.502 18.2451 19.1719V0.204315H21.5434V9.82112C22.6689 8.3297 24.5913 7.59571 27.3051 7.59571C32.712 7.59571 35.4465 10.33 35.4465 15.7019V19.1932C35.4258 24.5641 32.6281 27.1972 26.8458 27.1972ZM26.8458 10.6378C22.3992 10.6378 21.5434 12.4755 21.5434 15.6401V19.1311C21.5434 22.2141 22.4409 24.1334 26.8458 24.1334C31.2507 24.1334 32.1064 22.2958 32.1064 19.1311V15.6405C32.1064 12.4758 31.2507 10.6382 26.8458 10.6382V10.6378Z" fill="#7500E5"/>
<path d="M21.313 0.408362V10.5152C22.2315 8.82067 24.0685 7.78094 27.2834 7.78094C33.0239 7.78094 35.216 10.8437 35.216 15.683V19.1743C35.216 24.2586 32.7317 26.9946 26.8241 26.9946C21.167 26.9946 18.4322 24.2586 18.4322 19.1743V0.408362H21.313V0.408362ZM26.8452 24.3385C31.2918 24.3385 32.3145 22.5009 32.3145 19.132V15.6403C32.3145 12.2314 31.2501 10.4335 26.8452 10.4335C22.4403 10.4335 21.334 12.2303 21.334 15.6403V19.132C21.3133 22.5009 22.4403 24.3385 26.8452 24.3385ZM21.7305 0H18.0146V19.1725C18.0146 21.8475 18.7455 23.9095 20.2068 25.298C21.6887 26.7067 23.9019 27.4215 26.8241 27.4215C32.7527 27.4215 35.6336 24.7263 35.6336 19.1928V15.7011C35.6336 10.1882 32.8381 7.39174 27.2834 7.39174C24.7783 7.39174 22.9206 8.02489 21.7287 9.27022V0H21.7305ZM26.8452 23.9301C22.5866 23.9301 21.7515 22.1742 21.7515 19.132V15.6403C21.7515 13.8844 22.0649 12.7616 22.7536 12.0467C23.5258 11.23 24.8201 10.8625 26.8452 10.8625C31.1038 10.8625 31.897 12.5574 31.897 15.6609V19.132C31.897 22.2356 31.0827 23.9301 26.8452 23.9301Z" fill="#7500E5"/>
<path d="M42.3761 27.0544C40.6433 27.0544 37.7207 26.3797 37.7207 21.8274V0.204315H41.019V21.3373C41.019 23.665 41.8958 23.9711 42.7726 23.9711C43.214 23.995 43.6555 23.9254 44.0669 23.7669L44.3573 23.6444V26.6866L44.232 26.748C43.6387 26.9637 43.009 27.0677 42.3761 27.0544V27.0544Z" fill="#7500E5"/>
<path d="M40.811 0.408362V21.3372C40.811 23.5832 41.6043 24.1752 42.7715 24.1752C43.2419 24.1971 43.7116 24.1205 44.1493 23.9504V26.5426C43.5917 26.7588 42.9954 26.863 42.3957 26.8491C39.9535 26.8491 37.9494 25.5423 37.9494 21.8262V0.408362H40.8096H40.811ZM41.2271 0H37.5127V21.8272C37.5127 26.544 40.5623 27.2585 42.3776 27.2585C43.0336 27.2756 43.6865 27.1645 44.2981 26.9318L44.5486 26.8295V23.3382L43.9641 23.6035C43.5781 23.7468 43.1656 23.8094 42.7533 23.787C42.2106 23.787 41.2086 23.787 41.2086 21.3575V0H41.2271Z" fill="#7500E5"/>
<path d="M48.1813 34.792H47.6803L46.9705 31.8724L47.2421 31.8927H47.6596C51.0414 31.8927 52.3793 30.0142 53.4423 26.7679C52.9326 26.9415 52.3953 27.0245 51.8557 27.0129C48.8497 27.0129 48.0357 24.9505 47.3677 22.48L43.3164 7.96252H46.6565L50.6439 22.2755C51.1031 23.8884 51.6042 24.1948 52.7732 24.1948C53.7534 24.1948 54.318 23.9107 54.7148 22.2958L58.2426 7.98241H61.6244L56.8437 26.7064C55.4659 32.1377 52.6269 34.792 48.1813 34.792Z" fill="#7500E5"/>
<path d="M61.3744 8.14669L56.6547 26.6047C55.465 31.3009 53.0848 34.5881 48.1793 34.5881H47.8453L47.2415 32.0768H47.6801C51.5212 32.0768 52.7944 29.6266 53.7964 26.3803C53.2022 26.6742 52.5412 26.8147 51.8759 26.7887C49.1203 26.7887 48.3063 25.0736 47.5966 22.3989L43.6092 8.12644H46.5107L50.456 22.2764C50.957 23.9916 51.5208 24.3389 52.794 24.3389C53.8585 24.3389 54.5265 23.9713 54.944 22.2764L58.4293 8.12644H61.3726L61.3744 8.14669ZM61.9153 7.73868H58.0968L58.0133 8.04477L54.528 22.1944C54.1311 23.8076 53.5477 23.9504 52.7955 23.9504C51.7934 23.9504 51.3342 23.787 50.8539 22.1944L46.9075 8.04477L46.824 7.73868H43.0664L43.2116 8.24895L47.1987 22.5211C47.9095 25.0732 48.7445 27.1978 51.8966 27.1978C52.3187 27.2058 52.74 27.158 53.1491 27.0557C52.1471 29.9959 50.811 31.672 47.7004 31.672H47.2829L46.7191 31.6514L46.8443 32.1823L47.4499 34.6939L47.5334 35H48.1807C52.7316 35 55.6335 32.2846 57.053 26.7102L61.7708 8.25215L61.9161 7.74187L61.9153 7.73868Z" fill="#7500E5"/>
</svg>
