<svg width="29" height="24" viewBox="0 0 29 24" fill="none" xmlns="http://www.w3.org/2000/svg">
<path d="M9.03367 9.54896C11.376 9.54896 13.2749 7.63521 13.2749 5.27448C13.2749 2.91375 11.376 1 9.03367 1C6.69133 1 4.79248 2.91375 4.79248 5.27448C4.79248 7.63521 6.69133 9.54896 9.03367 9.54896Z" stroke="white" stroke-width="1.5" stroke-miterlimit="10" stroke-linecap="round"/>
<path d="M21.0967 9.54896C23.439 9.54896 25.3378 7.63521 25.3378 5.27448C25.3378 2.91375 23.439 1 21.0967 1C18.7543 1 16.8555 2.91375 16.8555 5.27448C16.8555 7.63521 18.7543 9.54896 21.0967 9.54896Z" stroke="white" stroke-width="1.5" stroke-miterlimit="10" stroke-linecap="round"/>
<path d="M14.8246 16.1582C13.2831 13.8237 12.1413 13.536 10.9668 13.4373C9.04195 13.2729 8.36499 13.4373 7.49228 13.4373C5.56743 13.4373 4.18905 15.1142 3.63443 16.1582C2.99825 17.3501 1 22.1836 1 22.1836" stroke="white" stroke-width="1.5" stroke-miterlimit="10" stroke-linecap="round"/>
<path d="M12.9976 22.7674C12.9976 22.7674 14.955 17.0297 16.0806 15.3775C17.3937 13.4622 19.9384 13.4375 19.9384 13.4375H22.6381C24.563 13.4375 26.08 15.3775 26.496 16.5447C27.0261 18.0572 27.7765 19.5615 27.7765 19.5615" stroke="white" stroke-width="1.5" stroke-miterlimit="10" stroke-linecap="round"/>
</svg>
