<svg width="50" height="40" viewBox="0 0 50 40" fill="none" xmlns="http://www.w3.org/2000/svg">
<path d="M28.1101 38.72H15.6001C15.0501 38.72 14.6001 38.27 14.6001 37.72V2C14.6001 1.45 15.0501 1 15.6001 1H28.1101C28.6601 1 29.1101 1.45 29.1101 2V37.72C29.1101 38.28 28.6701 38.72 28.1101 38.72Z" stroke="white" stroke-width="1.5" stroke-miterlimit="10" stroke-linecap="round"/>
<path d="M9.67 38.72H2C1.45 38.72 1 38.27 1 37.72V10.71C1 10.16 1.45 9.70996 2 9.70996H9.67C10.22 9.70996 10.67 10.16 10.67 10.71V37.73C10.67 38.28 10.23 38.72 9.67 38.72Z" stroke="white" stroke-width="1.5" stroke-miterlimit="10" stroke-linecap="round"/>
<path d="M48.0502 36.83L40.7402 39.16C40.2102 39.33 39.6502 39.04 39.4802 38.51L30.6902 10.92C30.5202 10.39 30.8102 9.82998 31.3402 9.65998L38.6502 7.32998C39.1802 7.15998 39.7402 7.44998 39.9102 7.97998L48.7002 35.57C48.8602 36.1 48.5702 36.66 48.0502 36.83Z" stroke="white" stroke-width="1.5" stroke-miterlimit="10" stroke-linecap="round"/>
<path d="M1 15H10" stroke="white" stroke-width="1.5" stroke-miterlimit="10" stroke-linecap="round"/>
<path d="M1 30H10" stroke="white" stroke-width="1.5" stroke-miterlimit="10" stroke-linecap="round"/>
<path d="M1 34H10" stroke="white" stroke-width="1.5" stroke-miterlimit="10" stroke-linecap="round"/>
<path d="M14.8599 6H28.8599" stroke="white" stroke-width="1.5" stroke-miterlimit="10" stroke-linecap="round"/>
<path d="M14.8599 28H28.8599" stroke="white" stroke-width="1.5" stroke-miterlimit="10" stroke-linecap="round"/>
<path d="M14.8599 32H28.8599" stroke="white" stroke-width="1.5" stroke-miterlimit="10" stroke-linecap="round"/>
<path d="M24.3599 9H19.3599V14H24.3599V9Z" stroke="white" stroke-width="1.5" stroke-miterlimit="10" stroke-linecap="round"/>
<path d="M32.25 14.8L41.29 11.92" stroke="white" stroke-width="1.5" stroke-miterlimit="10" stroke-linecap="round"/>
<path d="M37.0498 29.87L45.0898 26.99" stroke="white" stroke-width="1.5" stroke-miterlimit="10" stroke-linecap="round"/>
<path d="M38 33.88L47.04 31" stroke="white" stroke-width="1.5" stroke-miterlimit="10" stroke-linecap="round"/>
</svg>
