<svg width="41" height="41" viewBox="0 0 41 41" fill="none" xmlns="http://www.w3.org/2000/svg">
<path d="M18.8834 2.82991L19.4229 8.99635L18.6858 9.06085C17.2313 9.1881 16.1496 10.4773 16.2768 11.9317C16.4041 13.3862 17.6932 14.4679 19.1477 14.3407L19.8849 14.2762L20.4366 20.5821L26.7425 20.0304L26.678 19.2932C26.5507 17.8388 27.6325 16.5496 29.0869 16.4223C30.5414 16.2951 31.8306 17.3768 31.9578 18.8313L32.0223 19.5685L38.3282 19.0168L36.8004 1.55349C36.7864 1.3941 36.6456 1.27592 36.4862 1.28987L18.8834 2.82991Z" stroke="white" stroke-width="1.5" stroke-miterlimit="10" stroke-linecap="round"/>
<path d="M32.0223 19.5686L31.9578 18.8314C31.8306 17.3769 30.5414 16.2952 29.0869 16.4224C27.6325 16.5497 26.5507 17.8389 26.678 19.2933L26.7425 20.0305L20.4366 20.5822L20.963 26.5992L21.9891 26.5094C23.4435 26.3822 24.7318 27.454 24.8861 29.2172L24.8608 28.9283C24.9881 30.3828 23.9063 31.672 22.4519 31.7992L21.4258 31.889L21.9775 38.1949L39.5802 36.6549C39.7396 36.6409 39.8578 36.5001 39.8439 36.3407L38.3282 19.0169L32.0223 19.5686Z" stroke="white" stroke-width="1.5" stroke-miterlimit="10" stroke-linecap="round"/>
<path d="M21.989 26.5094L20.9629 26.5991L20.4365 20.5821L14.4194 21.1086L14.4839 21.8457C14.6112 23.3002 13.5294 24.5894 12.075 24.7166C10.6205 24.8439 9.33135 23.7621 9.2041 22.3077L9.1396 21.5705L2.82373 22.123L4.3385 39.4369C4.35244 39.5963 4.49328 39.7145 4.65267 39.7005L21.9665 38.1858L21.4148 31.8799L22.4409 31.7901C23.8954 31.6628 24.9771 30.3736 24.8499 28.9192C24.7326 27.4639 23.4434 26.3821 21.989 26.5094Z" stroke="white" stroke-width="1.5" stroke-miterlimit="10" stroke-linecap="round"/>
<path d="M19.1475 14.3407C17.693 14.468 16.4038 13.3862 16.2766 11.9318C16.1493 10.4773 17.2311 9.18812 18.6855 9.06088L19.4227 8.99638L18.8832 2.82994L1.5594 4.34557C1.40001 4.35952 1.28184 4.50035 1.29578 4.65975L2.82362 22.123L9.12954 21.5713L9.19403 22.3085C9.32128 23.763 10.6105 24.8447 12.0649 24.7175C13.5194 24.5902 14.6011 23.301 14.4739 21.8466L14.4094 21.1094L20.4264 20.583L19.8747 14.2771L19.1475 14.3407Z" stroke="white" stroke-width="1.5" stroke-miterlimit="10" stroke-linecap="round"/>
</svg>
