<svg width="52" height="37" viewBox="0 0 52 37" fill="none" xmlns="http://www.w3.org/2000/svg">
<path d="M10.6629 12.525C11.4292 12.525 12.0504 11.9038 12.0504 11.1375C12.0504 10.3712 11.4292 9.75 10.6629 9.75C9.8966 9.75 9.27539 10.3712 9.27539 11.1375C9.27539 11.9038 9.8966 12.525 10.6629 12.525Z" stroke="white" stroke-width="1.5" stroke-miterlimit="10" stroke-linecap="round"/>
<path d="M8.01221 18.0631C8.01221 18.0631 8.64971 16.2006 9.02471 15.6631C9.44971 15.0381 10.2872 15.0381 10.2872 15.0381H11.1747C11.7997 15.0381 12.2997 15.6631 12.4372 16.0506C12.6122 16.5381 12.8622 17.0256 12.8622 17.0256" stroke="white" stroke-width="1.5" stroke-miterlimit="10" stroke-linecap="round"/>
<path d="M25.6629 12.525C26.4292 12.525 27.0504 11.9038 27.0504 11.1375C27.0504 10.3712 26.4292 9.75 25.6629 9.75C24.8966 9.75 24.2754 10.3712 24.2754 11.1375C24.2754 11.9038 24.8966 12.525 25.6629 12.525Z" stroke="white" stroke-width="1.5" stroke-miterlimit="10" stroke-linecap="round"/>
<path d="M23.0122 18.0631C23.0122 18.0631 23.6497 16.2006 24.0247 15.6631C24.4497 15.0381 25.2872 15.0381 25.2872 15.0381H26.1747C26.7997 15.0381 27.2997 15.6631 27.4372 16.0506C27.6122 16.5381 27.8622 17.0256 27.8622 17.0256" stroke="white" stroke-width="1.5" stroke-miterlimit="10" stroke-linecap="round"/>
<path d="M40.6629 12.525C41.4292 12.525 42.0504 11.9038 42.0504 11.1375C42.0504 10.3712 41.4292 9.75 40.6629 9.75C39.8966 9.75 39.2754 10.3712 39.2754 11.1375C39.2754 11.9038 39.8966 12.525 40.6629 12.525Z" stroke="white" stroke-width="1.5" stroke-miterlimit="10" stroke-linecap="round"/>
<path d="M38.0122 18.0631C38.0122 18.0631 38.6497 16.2006 39.0247 15.6631C39.4497 15.0381 40.2872 15.0381 40.2872 15.0381H41.1747C41.7997 15.0381 42.2997 15.6631 42.4372 16.0506C42.6122 16.5381 42.8622 17.0256 42.8622 17.0256" stroke="white" stroke-width="1.5" stroke-miterlimit="10" stroke-linecap="round"/>
<path d="M26 28.5V36" stroke="white" stroke-width="1.5" stroke-miterlimit="10" stroke-linecap="round"/>
<path d="M14.75 36H37.25" stroke="white" stroke-width="1.5" stroke-miterlimit="10" stroke-linecap="round"/>
<path d="M43.8875 1H2.25C1.5625 1 1 1.5625 1 2.25V27.25C1 27.9375 1.5625 28.5 2.25 28.5H49.75C50.4375 28.5 51 27.9375 51 27.25V2.25C51 1.5625 50.4375 1 49.75 1H39.125" stroke="white" stroke-width="1.5" stroke-miterlimit="10" stroke-linecap="round"/>
<path d="M1.3877 23.5H50.1377" stroke="white" stroke-width="1.5" stroke-miterlimit="10" stroke-linecap="round"/>
<path d="M16.3877 7.25H5.1377V18.5H16.3877V7.25Z" stroke="white" stroke-width="1.5" stroke-miterlimit="10" stroke-linecap="round"/>
<path d="M31.3877 7.25H20.1377V18.5H31.3877V7.25Z" stroke="white" stroke-width="1.5" stroke-miterlimit="10" stroke-linecap="round"/>
<path d="M46.3877 7.25H35.1377V18.5H46.3877V7.25Z" stroke="white" stroke-width="1.5" stroke-miterlimit="10" stroke-linecap="round"/>
</svg>
