<svg width="39" height="40" viewBox="0 0 39 40" fill="none" xmlns="http://www.w3.org/2000/svg">
<path d="M16.5398 2.87976C16.5398 1.68976 15.5998 0.749756 14.4098 0.749756C13.2198 0.749756 12.2798 1.68976 12.2798 2.87976" stroke="white" stroke-width="1.5" stroke-miterlimit="10" stroke-linecap="round"/>
<path d="M8.46008 3.00977H20.3701C20.7201 3.00977 21.0001 3.28977 21.0001 3.63977V7.01977C21.0001 7.36977 20.7201 7.64977 20.3701 7.64977H8.46008C8.11008 7.64977 7.83008 7.36977 7.83008 7.01977V3.62977C7.83008 3.28977 8.11008 3.00977 8.46008 3.00977Z" stroke="white" stroke-width="1.5" stroke-miterlimit="10" stroke-linecap="round"/>
<path d="M6.2002 13.8497L7.3902 15.2297L10.4202 11.5797" stroke="white" stroke-width="1.5" stroke-miterlimit="10" stroke-linecap="round"/>
<path d="M6.2002 21.8097L7.3902 23.1897L10.4202 19.7197" stroke="white" stroke-width="1.5" stroke-miterlimit="10" stroke-linecap="round"/>
<path d="M6.2002 29.6397L7.3902 31.0797L10.4202 27.2397" stroke="white" stroke-width="1.5" stroke-miterlimit="10" stroke-linecap="round"/>
<path d="M28.1401 9.0197V5.9497C28.1401 5.5997 27.8601 5.3197 27.5101 5.3197H21.0601" stroke="white" stroke-width="1.5" stroke-miterlimit="10" stroke-linecap="round"/>
<path d="M28.1402 38.4097L27.9702 23.4797" stroke="white" stroke-width="1.5" stroke-miterlimit="10" stroke-linecap="round"/>
<path d="M7.83 5.3197H1.38C1.03 5.3197 0.75 5.5997 0.75 5.9497V37.7897C0.75 38.1397 1.03 38.4197 1.38 38.4197H28.14" stroke="white" stroke-width="1.5" stroke-miterlimit="10" stroke-linecap="round"/>
<path d="M34.04 5.23974L37.83 7.47974C37.87 7.49974 37.88 7.54974 37.86 7.58974L28.19 23.9397C28.17 23.9797 28.12 23.9897 28.08 23.9697L24.29 21.7297C24.25 21.7097 24.24 21.6597 24.26 21.6197L33.93 5.26974C33.96 5.22974 34 5.21974 34.04 5.23974Z" stroke="white" stroke-width="1.5" stroke-miterlimit="10" stroke-linecap="round"/>
<path d="M24.3198 22.0197V25.9397C24.3198 26.0097 24.3898 26.0497 24.4498 26.0197L27.8798 24.0597C27.9398 24.0297 27.9398 23.9397 27.8798 23.9097L24.4498 21.9497C24.3898 21.9097 24.3198 21.9497 24.3198 22.0197Z" stroke="white" stroke-width="1.5" stroke-miterlimit="10" stroke-linecap="round"/>
<path d="M12.2998 14.5398H21.0698" stroke="white" stroke-width="1.5" stroke-miterlimit="10" stroke-linecap="round"/>
<path d="M12.2998 22.6897H21.0698" stroke="white" stroke-width="1.5" stroke-miterlimit="10" stroke-linecap="round"/>
<path d="M12.2998 30.2097H21.0698" stroke="white" stroke-width="1.5" stroke-miterlimit="10" stroke-linecap="round"/>
</svg>
