<svg width="49" height="44" viewBox="0 0 49 44" fill="none" xmlns="http://www.w3.org/2000/svg">
<path d="M3.65 37.11H3.18C1.98 37.11 1 36.13 1 34.93V21.9C1 20.7 1.98 19.72 3.18 19.72H3.65C4.85 19.72 5.83 20.7 5.83 21.9V34.93C5.83 36.13 4.85 37.11 3.65 37.11Z" stroke="white" stroke-width="1.5" stroke-miterlimit="10" stroke-linecap="round"/>
<path d="M9.14996 40.38H8.54996C6.97996 40.38 5.70996 39.11 5.70996 37.54V19.54C5.70996 17.97 6.97996 16.7 8.54996 16.7H9.14996C10.72 16.7 11.99 17.97 11.99 19.54V37.54C11.99 39.11 10.72 40.38 9.14996 40.38Z" stroke="white" stroke-width="1.5" stroke-miterlimit="10" stroke-linecap="round"/>
<path d="M45.0902 19.96H45.5602C46.7602 19.96 47.7402 20.94 47.7402 22.14V35.17C47.7402 36.37 46.7602 37.35 45.5602 37.35H45.0902C43.8902 37.35 42.9102 36.37 42.9102 35.17V22.14C42.9102 20.94 43.8902 19.96 45.0902 19.96Z" stroke="white" stroke-width="1.5" stroke-miterlimit="10" stroke-linecap="round"/>
<path d="M39.59 16.7H40.2C41.77 16.7 43.04 17.97 43.04 19.54V37.54C43.04 39.11 41.77 40.38 40.2 40.38H39.59C38.02 40.38 36.75 39.11 36.75 37.54V19.54C36.75 17.97 38.02 16.7 39.59 16.7Z" stroke="white" stroke-width="1.5" stroke-miterlimit="10" stroke-linecap="round"/>
<path d="M15.6099 12.9399V15.9599" stroke="white" stroke-width="1.5" stroke-miterlimit="10" stroke-linecap="round"/>
<path d="M27.21 12.9399V15.9599" stroke="white" stroke-width="1.5" stroke-miterlimit="10" stroke-linecap="round"/>
<path d="M18.7598 11.01V18.02" stroke="white" stroke-width="1.5" stroke-miterlimit="10" stroke-linecap="round"/>
<path d="M33.0098 11.98V17.17" stroke="white" stroke-width="1.5" stroke-miterlimit="10" stroke-linecap="round"/>
<path d="M21.6499 9.43994V19.7099" stroke="white" stroke-width="1.5" stroke-miterlimit="10" stroke-linecap="round"/>
<path d="M30.1099 9.43994V19.7099" stroke="white" stroke-width="1.5" stroke-miterlimit="10" stroke-linecap="round"/>
<path d="M24.3101 10.15V18.86" stroke="white" stroke-width="1.5" stroke-miterlimit="10" stroke-linecap="round"/>
<path d="M24.3098 42.31C28.7116 42.31 32.2798 38.7417 32.2798 34.34C32.2798 29.9383 28.7116 26.37 24.3098 26.37C19.9081 26.37 16.3398 29.9383 16.3398 34.34C16.3398 38.7417 19.9081 42.31 24.3098 42.31Z" stroke="white" stroke-width="1.5" stroke-miterlimit="10" stroke-linecap="round"/>
<path d="M22.9001 37.7199L27.9601 34.5299C28.2801 34.3299 28.2701 33.8699 27.9501 33.6799L22.8901 30.6799C22.5601 30.4799 22.1401 30.7199 22.1401 31.1099V37.2999C22.1401 37.6899 22.5701 37.9299 22.9001 37.7199Z" stroke="white" stroke-width="1.5" stroke-miterlimit="10" stroke-linecap="round"/>
<path d="M40.2399 16.46C39.9899 7.88 32.9499 1 24.3099 1C15.6699 1 8.63988 7.88 8.37988 16.46" stroke="white" stroke-width="1.5" stroke-miterlimit="10" stroke-linecap="round"/>
</svg>
