<svg width="39" height="49" viewBox="0 0 39 49" fill="none" xmlns="http://www.w3.org/2000/svg">
<path d="M19.1902 11.0897C12.8902 11.0897 7.74023 16.2397 7.74023 22.5397C7.74023 25.8397 9.18023 29.0097 11.6102 31.1497C13.4202 32.9597 13.2602 36.8397 13.2202 36.8797C13.2202 37.0897 13.2602 37.2497 13.4302 37.4197C13.5502 37.5397 13.7602 37.6297 13.9202 37.6297H24.4302C24.6402 37.6297 24.8002 37.5497 24.9202 37.4197C25.0402 37.2997 25.1302 37.0897 25.1302 36.8797C25.1302 36.8397 24.9202 32.9697 26.7402 31.1497C26.7802 31.1097 26.8202 31.0697 26.8602 31.0297C29.2502 28.8497 30.6502 25.7597 30.6502 22.5397C30.6402 16.2397 25.4902 11.0897 19.1902 11.0897Z" stroke="white" stroke-width="1.5" stroke-miterlimit="10" stroke-linecap="round"/>
<path d="M23.7599 40.2397H14.6099C13.6599 40.2397 12.8799 41.0197 12.8799 41.9697C12.8799 42.9197 13.6599 43.6997 14.6099 43.6997H23.7199C24.7099 43.6597 25.4899 42.9197 25.4899 41.9697C25.4899 41.0197 24.7099 40.2397 23.7599 40.2397Z" stroke="white" stroke-width="1.5" stroke-miterlimit="10" stroke-linecap="round"/>
<path d="M22.4002 44.3998H15.9702C15.0202 44.3998 14.2402 45.1798 14.2402 46.1298C14.2402 47.0798 15.0202 47.8598 15.9702 47.8598H22.4002C23.3502 47.8598 24.1302 47.0798 24.1302 46.1298C24.1302 45.1398 23.3502 44.3998 22.4002 44.3998Z" stroke="white" stroke-width="1.5" stroke-miterlimit="10" stroke-linecap="round"/>
<path d="M5.89 14.4698L0.75 11.8998" stroke="white" stroke-width="1.5" stroke-miterlimit="10" stroke-linecap="round"/>
<path d="M11.0399 9.31981L7.60986 4.17981" stroke="white" stroke-width="1.5" stroke-miterlimit="10" stroke-linecap="round"/>
<path d="M18.7598 6.74976V0.749756" stroke="white" stroke-width="1.5" stroke-miterlimit="10" stroke-linecap="round"/>
<path d="M27.3301 9.31981L30.7601 4.17981" stroke="white" stroke-width="1.5" stroke-miterlimit="10" stroke-linecap="round"/>
<path d="M32.48 14.4698L37.62 11.8998" stroke="white" stroke-width="1.5" stroke-miterlimit="10" stroke-linecap="round"/>
<path d="M15.5699 22.0298C14.3699 22.0298 13.3999 22.9998 13.3999 24.1998C13.3999 25.3998 14.3699 26.3698 15.5699 26.3698H17.7399V24.1998C17.7399 22.9998 16.7699 22.0298 15.5699 22.0298Z" stroke="white" stroke-width="1.5" stroke-miterlimit="10" stroke-linecap="round"/>
<path d="M17.7397 26.3698V35.0497" stroke="white" stroke-width="1.5" stroke-miterlimit="10" stroke-linecap="round"/>
<path d="M20.6299 26.3698V35.0497" stroke="white" stroke-width="1.5" stroke-miterlimit="10" stroke-linecap="round"/>
<path d="M17.7397 26.3698H19.9097" stroke="white" stroke-width="1.5" stroke-miterlimit="10" stroke-linecap="round"/>
<path d="M22.7999 22.0298C23.9999 22.0298 24.9699 22.9998 24.9699 24.1998C24.9699 25.3998 23.9999 26.3698 22.7999 26.3698H20.6299V24.1998C20.6299 22.9998 21.5999 22.0298 22.7999 22.0298Z" stroke="white" stroke-width="1.5" stroke-miterlimit="10" stroke-linecap="round"/>
</svg>
