<svg width="44" height="43" viewBox="0 0 44 43" fill="none" xmlns="http://www.w3.org/2000/svg">
<path d="M2.77734 16.3771L4.94142 41.1126C4.97454 41.4911 5.31038 41.7729 5.68893 41.7398L42.1098 38.5534C42.4884 38.5203 42.7702 38.1845 42.737 37.8059L40.6331 13.7578C40.6 13.3792 40.2641 13.0974 39.8856 13.1305L8.61504 15.8663" stroke="white" stroke-width="1.5" stroke-miterlimit="10" stroke-linecap="round"/>
<path d="M3.28906 22.2247L41.0747 18.9189" stroke="white" stroke-width="1.5" stroke-miterlimit="10" stroke-linecap="round"/>
<path d="M10.3589 16.0651L8.2679 21.5382" stroke="white" stroke-width="1.5" stroke-miterlimit="10" stroke-linecap="square"/>
<path d="M15.4494 15.6196L13.3485 21.0936" stroke="white" stroke-width="1.5" stroke-miterlimit="10" stroke-linecap="square"/>
<path d="M20.5302 15.1752L18.4393 20.6483" stroke="white" stroke-width="1.5" stroke-miterlimit="10" stroke-linecap="square"/>
<path d="M25.6208 14.7299L23.5199 20.2038" stroke="white" stroke-width="1.5" stroke-miterlimit="10" stroke-linecap="square"/>
<path d="M30.7011 14.2853L28.6102 19.7584" stroke="white" stroke-width="1.5" stroke-miterlimit="10" stroke-linecap="square"/>
<path d="M35.7817 13.8408L33.6908 19.3139" stroke="white" stroke-width="1.5" stroke-miterlimit="10" stroke-linecap="square"/>
<path d="M10.0002 13.9182L6.39355 10.098" stroke="white" stroke-width="1.5" stroke-miterlimit="10" stroke-linecap="square"/>
<path d="M14.9504 12.672L11.3438 8.85181" stroke="white" stroke-width="1.5" stroke-miterlimit="10" stroke-linecap="square"/>
<path d="M19.9007 11.4258L16.2949 7.6156" stroke="white" stroke-width="1.5" stroke-miterlimit="10" stroke-linecap="square"/>
<path d="M24.841 10.1805L21.2451 6.36938" stroke="white" stroke-width="1.5" stroke-miterlimit="10" stroke-linecap="square"/>
<path d="M29.7912 8.93427L26.1953 5.12317" stroke="white" stroke-width="1.5" stroke-miterlimit="10" stroke-linecap="square"/>
<path d="M34.7414 7.68818L31.1455 3.87708" stroke="white" stroke-width="1.5" stroke-miterlimit="10" stroke-linecap="square"/>
<path d="M8.44286 14.8173L38.8818 7.16526C39.2551 7.07237 39.4736 6.70191 39.3807 6.32859L38.3668 2.31168C38.2739 1.93835 37.9034 1.71981 37.5301 1.8127L2.08295 10.7361C1.70963 10.829 1.49109 11.1994 1.58398 11.5728L2.76678 16.2575" stroke="white" stroke-width="1.5" stroke-miterlimit="10" stroke-linecap="round"/>
<path d="M4.99033 17.92C6.12921 17.8204 6.97168 16.8164 6.87204 15.6775C6.7724 14.5386 5.76838 13.6961 4.62951 13.7958C3.49063 13.8954 2.64816 14.8994 2.7478 16.0383C2.84743 17.1772 3.85145 18.0197 4.99033 17.92Z" stroke="white" stroke-width="1.5" stroke-miterlimit="10"/>
<path d="M33.2791 30.673L12.2295 32.5146C11.6816 32.5626 11.1941 32.1535 11.1461 31.6056L11.0198 30.1611C10.9718 29.6132 11.3809 29.1257 11.9288 29.0778L32.9784 27.2362C33.5263 27.1882 34.0138 27.5973 34.0618 28.1452L34.1881 29.5897C34.2361 30.1376 33.827 30.6251 33.2791 30.673Z" stroke="white" stroke-width="1.5" stroke-miterlimit="10" stroke-linecap="round"/>
</svg>
