<svg width="53" height="34" viewBox="0 0 53 34" fill="none" xmlns="http://www.w3.org/2000/svg">
<path d="M21.1278 16.2613C21.3634 10.3344 26.2934 5.45875 32.2294 5.30469C34.3047 5.25031 36.2531 5.74875 37.9478 6.66407V1.96969C37.9478 1.435 37.5128 1 36.9781 1H1.96969C1.435 1 1 1.435 1 1.96969V30.136C1 30.6344 1.40781 31.0422 1.90625 31.0422H36.9691C37.5038 31.0422 37.9388 30.6072 37.9388 30.0725V26.7738C36.3256 27.6438 34.486 28.1331 32.5285 28.1331C26.0759 28.1331 20.8741 22.7772 21.1278 16.2613Z" stroke="white" stroke-width="1.5" stroke-miterlimit="10" stroke-linecap="round"/>
<path d="M37.9385 26.7745C41.5182 24.8442 43.9469 21.0651 43.9469 16.7151C43.9469 12.3651 41.5182 8.59511 37.9385 6.66479" stroke="white" stroke-width="1.5" stroke-miterlimit="10" stroke-linecap="round"/>
<path d="M37.9389 6.6648C36.3258 5.7948 34.4861 5.30542 32.5286 5.30542C26.2211 5.30542 21.1099 10.4167 21.1099 16.7242C21.1099 23.0317 26.2211 28.1429 32.5286 28.1429C34.4861 28.1429 36.3258 27.6445 37.9389 26.7836" stroke="white" stroke-width="1.5" stroke-miterlimit="10" stroke-linecap="round"/>
<path d="M41.5459 24.5271L51.7503 32.3299" stroke="white" stroke-width="1.5" stroke-miterlimit="10" stroke-linecap="round"/>
<path d="M6.69092 31.0429V20.2313" stroke="white" stroke-width="1.5" stroke-miterlimit="10" stroke-linecap="round"/>
<path d="M11.5034 31.0421V14.222" stroke="white" stroke-width="1.5" stroke-miterlimit="10" stroke-linecap="round"/>
<path d="M16.3066 31.0419V11.8113" stroke="white" stroke-width="1.5" stroke-miterlimit="10" stroke-linecap="round"/>
<path d="M21.1191 31.0428V19.0259" stroke="white" stroke-width="1.5" stroke-miterlimit="10" stroke-linecap="round"/>
<path d="M30.7246 31.0415V22.6315" stroke="white" stroke-width="1.5" stroke-miterlimit="10" stroke-linecap="round"/>
<path d="M25.9219 31.0425V17.8293" stroke="white" stroke-width="1.5" stroke-miterlimit="10" stroke-linecap="round"/>
</svg>
