<svg width="42" height="35" viewBox="0 0 42 35" fill="none" xmlns="http://www.w3.org/2000/svg">
<path d="M9.34605 34.8093C6.48501 34.8093 4.19619 33.7602 2.47956 31.6621C0.826521 29.5005 0 26.9573 0 24.0327C0 21.6167 0.44505 19.3597 1.33515 17.2616C2.22525 15.1635 3.33787 13.2561 4.67302 11.5395C6.07175 9.82289 7.53406 8.32879 9.05995 7.05722C10.6494 5.72207 12.1117 4.60945 13.4469 3.71935C14.782 2.76567 15.8629 2.0663 16.6894 1.62125C17.5795 1.1762 17.9927 0.953678 17.9292 0.953678L20.1226 3.91008C19.5504 4.1644 18.7875 4.67302 17.8338 5.43597C16.8801 6.13533 15.9264 6.99364 14.9728 8.0109C14.0827 9.02816 13.2879 10.1408 12.5886 11.3488C11.8892 12.4932 11.5395 13.6058 11.5395 14.6866C11.5395 15.3224 11.921 15.9582 12.6839 16.594C13.4469 17.1662 14.2734 17.8656 15.1635 18.6921C16.0536 19.455 16.8801 20.4087 17.6431 21.5531C18.406 22.634 18.7875 23.9691 18.7875 25.5586C18.7875 26.9573 18.5014 28.2289 17.9292 29.3733C17.4205 30.5177 16.7212 31.5032 15.8311 32.3297C15.0045 33.0926 14.0191 33.6966 12.8747 34.1417C11.7302 34.5867 10.554 34.8093 9.34605 34.8093ZM32.8065 35C31.3442 35 30.0091 34.6821 28.8011 34.0463C27.5931 33.4105 26.5441 32.5522 25.6539 31.4714C24.7639 30.3906 24.0645 29.1508 23.5559 27.752C23.1108 26.2897 22.8883 24.7321 22.8883 23.079C22.8883 19.7729 23.5876 16.7212 24.9864 13.9237C26.4487 11.0627 28.0381 8.61489 29.7548 6.58038C31.7893 4.1644 34.1099 1.97094 36.7166 0L39.4823 2.57493C38.9101 2.9564 38.2107 3.5604 37.3842 4.38692C36.6213 5.21344 35.8901 6.19891 35.1907 7.34332C34.555 8.42416 33.9827 9.56857 33.4741 10.7766C33.0291 11.9846 32.8065 13.1608 32.8065 14.3052C32.8065 15.0681 33.2834 15.7039 34.2371 16.2125C35.1907 16.7212 36.2398 17.3569 37.3842 18.1199C38.5286 18.8828 39.5777 19.8683 40.5313 21.0763C41.485 22.2207 41.9619 23.842 41.9619 25.9401C41.9619 27.2116 41.7075 28.3878 41.1989 29.4687C40.6903 30.5495 39.9909 31.5032 39.1008 32.3297C38.2743 33.1562 37.2888 33.8238 36.1444 34.3324C35.0636 34.7775 33.951 35 32.8065 35Z" fill="#00A6A6"/>
</svg>
