<svg width="69" height="88" viewBox="0 0 69 88" fill="none" xmlns="http://www.w3.org/2000/svg">
<path d="M42.3749 30.2463C45.494 38.9574 48.5851 47.6404 51.7042 56.3515C52.2662 55.6209 52.8001 54.8903 53.3621 54.1597C45.6907 54.3564 38.0475 54.5531 30.3761 54.7498C28.1562 54.806 28.1562 58.2623 30.3761 58.2061C38.0475 58.0094 45.6907 57.8127 53.3621 57.616C54.4018 57.5879 55.4134 56.5201 55.02 55.4242C51.9009 46.7131 48.8099 38.0301 45.6908 29.319C45.3817 28.4479 44.5106 27.8578 43.5551 28.1107C42.7402 28.3636 42.0658 29.3752 42.3749 30.2463Z" fill="#007474"/>
<path d="M5.42343 75.1511C10.06 82.8786 18.8835 87.6276 27.8475 87.7681C30.4046 87.7962 32.9897 87.4309 35.4345 86.7003C37.542 86.054 36.6428 82.71 34.5072 83.3845C27.0325 85.6887 18.5181 83.6654 12.6733 78.495C10.9873 77.0057 9.55418 75.3197 8.43017 73.4089C7.27806 71.498 4.27132 73.2403 5.42343 75.1511Z" fill="#007474"/>
<path d="M3.1753 7.12019C4.92898 7.12019 6.35064 5.69854 6.35064 3.94485C6.35064 2.19117 4.92898 0.769531 3.1753 0.769531C1.42161 0.769531 0 2.19117 0 3.94485C0 5.69854 1.42161 7.12019 3.1753 7.12019Z" fill="#007474"/>
<path d="M65.5862 7.12019C67.3399 7.12019 68.7616 5.69854 68.7616 3.94485C68.7616 2.19117 67.3399 0.769531 65.5862 0.769531C63.8325 0.769531 62.4109 2.19117 62.4109 3.94485C62.4109 5.69854 63.8325 7.12019 65.5862 7.12019Z" fill="#007474"/>
</svg>
