<svg width="220" height="212" viewBox="0 0 220 212" fill="none" xmlns="http://www.w3.org/2000/svg">
<path d="M160.653 10.8234C133.092 -0.782915 91.9739 -5.40492 58.1136 8.94037C24.8695 23.0118 14.5299 48.5526 8.50415 63.4114C-5.94385 99.1206 -7.6557 161.226 49.6912 192.964C54.8268 195.806 98.8555 219.429 145.521 207.994C203.997 193.683 219.13 135.96 219.507 105.968C219.609 95.3545 220.328 35.9534 160.653 10.8234Z" fill="#6C2C6C"/>
<path d="M97.9998 94.2934C94.1995 104.907 90.4334 115.486 86.6331 126.1C85.9483 125.209 85.2978 124.319 84.6131 123.429C93.9598 123.669 103.272 123.908 112.619 124.148C115.324 124.217 115.324 128.428 112.619 128.359C103.272 128.12 93.9598 127.88 84.6131 127.64C83.3463 127.606 82.1138 126.305 82.5931 124.97C86.3934 114.356 90.1594 103.777 93.9597 93.1636C94.3363 92.1022 95.3977 91.3833 96.5618 91.6914C97.5546 91.9995 98.3764 93.2321 97.9998 94.2934Z" fill="white"/>
<path d="M143.021 149.004C137.372 158.42 126.622 164.206 115.7 164.377C112.584 164.411 109.435 163.966 106.456 163.076C103.888 162.288 104.984 158.214 107.586 159.036C116.693 161.843 127.067 159.378 134.188 153.079C136.242 151.264 137.988 149.21 139.358 146.882C140.761 144.554 144.425 146.676 143.021 149.004Z" fill="white"/>
<path d="M145.76 66.1165C143.623 66.1165 141.891 64.3844 141.891 62.2477C141.891 60.1111 143.623 58.379 145.76 58.379C147.897 58.379 149.629 60.1111 149.629 62.2477C149.629 64.3844 147.897 66.1165 145.76 66.1165Z" fill="white"/>
<path d="M69.7196 66.1165C67.5829 66.1165 65.8508 64.3844 65.8508 62.2477C65.8508 60.1111 67.5829 58.379 69.7196 58.379C71.8563 58.379 73.5884 60.1111 73.5884 62.2477C73.5884 64.3844 71.8563 66.1165 69.7196 66.1165Z" fill="white"/>
</svg>
