<svg width="69" height="87" viewBox="0 0 69 87" fill="none" xmlns="http://www.w3.org/2000/svg">
<path d="M26.3866 29.4768C23.2675 38.1879 20.1764 46.8709 17.0573 55.5819C16.4953 54.8513 15.9614 54.1207 15.3994 53.3901C23.0707 53.5868 30.714 53.7835 38.3854 53.9802C40.6053 54.0364 40.6053 57.4928 38.3854 57.4366C30.714 57.2399 23.0707 57.0431 15.3994 56.8464C14.3597 56.8183 13.3481 55.7505 13.7415 54.6546C16.8606 45.9436 19.9516 37.2606 23.0707 28.5495C23.3798 27.6784 24.2509 27.0883 25.2063 27.3412C26.0212 27.5941 26.6957 28.6057 26.3866 29.4768Z" fill="#F2B704"/>
<path d="M63.338 74.3815C58.7015 82.1091 49.878 86.8581 40.914 86.9986C38.3569 87.0267 35.7717 86.6614 33.327 85.9308C31.2195 85.2844 32.1187 81.9405 34.2543 82.6149C41.7289 84.9191 50.2433 82.8959 56.0882 77.7255C57.7742 76.2361 59.2073 74.5501 60.3313 72.6393C61.4834 70.7285 64.4902 72.4707 63.338 74.3815Z" fill="#F2B704"/>
<path d="M65.5862 6.35066C63.8325 6.35066 62.4108 4.92901 62.4108 3.17532C62.4108 1.42163 63.8325 0 65.5862 0C67.3399 0 68.7615 1.42163 68.7615 3.17532C68.7615 4.92901 67.3399 6.35066 65.5862 6.35066Z" fill="#F2B704"/>
<path d="M3.17524 6.35066C1.42156 6.35066 -9.72748e-05 4.92901 -9.72748e-05 3.17532C-9.72748e-05 1.42163 1.42156 0 3.17524 0C4.92893 0 6.35059 1.42163 6.35059 3.17532C6.35059 4.92901 4.92893 6.35066 3.17524 6.35066Z" fill="#F2B704"/>
</svg>
