<svg width="220" height="212" viewBox="0 0 220 212" fill="none" xmlns="http://www.w3.org/2000/svg">
<path d="M58.8658 10.8234C86.4266 -0.782915 127.545 -5.40492 161.405 8.94037C194.65 23.0118 204.989 48.5526 211.015 63.4114C225.463 99.1206 227.175 161.226 169.828 192.964C164.692 195.806 120.664 219.429 73.9985 207.994C15.5218 193.683 0.389051 135.96 0.0124444 105.968C-0.0902665 95.3545 -0.809233 35.9534 58.8658 10.8234Z" fill="#6C2C6C"/>
<path d="M121.52 94.2934C125.32 104.907 129.086 115.486 132.886 126.1C133.571 125.209 134.222 124.319 134.906 123.429C125.56 123.669 116.247 123.908 106.901 124.148C104.196 124.217 104.196 128.428 106.901 128.359C116.247 128.12 125.56 127.88 134.906 127.64C136.173 127.606 137.406 126.305 136.926 124.97C133.126 114.356 129.36 103.777 125.56 93.1636C125.183 92.1022 124.122 91.3833 122.958 91.6914C121.965 91.9995 121.143 93.2321 121.52 94.2934Z" fill="white"/>
<path d="M76.4974 149.004C82.1465 158.42 92.897 164.206 103.819 164.377C106.934 164.411 110.084 163.966 113.062 163.076C115.63 162.288 114.535 158.214 111.933 159.036C102.826 161.843 92.4519 159.378 85.3306 153.079C83.2764 151.264 81.5303 149.21 80.1608 146.882C78.7571 144.554 75.0937 146.676 76.4974 149.004Z" fill="white"/>
<path d="M73.7584 66.1165C75.8951 66.1165 77.6272 64.3844 77.6272 62.2477C77.6272 60.111 75.8951 58.3789 73.7584 58.3789C71.6217 58.3789 69.8896 60.111 69.8896 62.2477C69.8896 64.3844 71.6217 66.1165 73.7584 66.1165Z" fill="white"/>
<path d="M149.799 66.1165C151.936 66.1165 153.668 64.3844 153.668 62.2477C153.668 60.111 151.936 58.3789 149.799 58.3789C147.663 58.3789 145.931 60.111 145.931 62.2477C145.931 64.3844 147.663 66.1165 149.799 66.1165Z" fill="white"/>
</svg>
