<svg width="56" height="41" viewBox="0 0 56 41" fill="none" xmlns="http://www.w3.org/2000/svg">
<path d="M54 40H2C1.45 40 1 39.55 1 39V2C1 1.45 1.45 1 2 1H54C54.55 1 55 1.45 55 2V39C55 39.55 54.55 40 54 40Z" stroke="white" stroke-width="1.5" stroke-miterlimit="10" stroke-linecap="round"/>
<path d="M1.04004 8.25H55.04" stroke="white" stroke-width="1.5" stroke-miterlimit="10" stroke-linecap="round"/>
<path d="M4.54004 5.25C4.81618 5.25 5.04004 5.02614 5.04004 4.75C5.04004 4.47386 4.81618 4.25 4.54004 4.25C4.2639 4.25 4.04004 4.47386 4.04004 4.75C4.04004 5.02614 4.2639 5.25 4.54004 5.25Z" stroke="white" stroke-width="1.5" stroke-miterlimit="10" stroke-linecap="round"/>
<path d="M7.54004 5.25C7.81618 5.25 8.04004 5.02614 8.04004 4.75C8.04004 4.47386 7.81618 4.25 7.54004 4.25C7.2639 4.25 7.04004 4.47386 7.04004 4.75C7.04004 5.02614 7.2639 5.25 7.54004 5.25Z" stroke="white" stroke-width="1.5" stroke-miterlimit="10" stroke-linecap="round"/>
<path d="M10.54 5.25C10.8162 5.25 11.04 5.02614 11.04 4.75C11.04 4.47386 10.8162 4.25 10.54 4.25C10.2639 4.25 10.04 4.47386 10.04 4.75C10.04 5.02614 10.2639 5.25 10.54 5.25Z" stroke="white" stroke-width="1.5" stroke-miterlimit="10" stroke-linecap="round"/>
<path d="M49.1301 25.71H6.87012C6.32012 25.71 5.87012 25.26 5.87012 24.71V14.25C5.87012 13.7 6.32012 13.25 6.87012 13.25H49.1301C49.6801 13.25 50.1301 13.7 50.1301 14.25V24.71C50.1301 25.26 49.6801 25.71 49.1301 25.71Z" stroke="white" stroke-width="1.5" stroke-miterlimit="10" stroke-linecap="round"/>
<path d="M27.04 18.1196V21.3796C27.04 21.9996 27.68 22.4196 28.25 22.1796L31.51 20.7796C32.17 20.4996 32.22 19.5796 31.6 19.2296L28.34 17.3696C27.76 17.0296 27.04 17.4496 27.04 18.1196Z" stroke="white" stroke-width="1.5" stroke-miterlimit="10" stroke-linecap="round"/>
<path d="M6 30.25H26.09" stroke="white" stroke-width="1.5" stroke-miterlimit="10" stroke-linecap="round"/>
<path d="M6 33.12H26.09" stroke="white" stroke-width="1.5" stroke-miterlimit="10" stroke-linecap="round"/>
<path d="M29.9102 30.25H50.0002" stroke="white" stroke-width="1.5" stroke-miterlimit="10" stroke-linecap="round"/>
<path d="M29.9102 33.12H50.0002" stroke="white" stroke-width="1.5" stroke-miterlimit="10" stroke-linecap="round"/>
</svg>
