<svg width="39" height="40" viewBox="0 0 39 40" fill="none" xmlns="http://www.w3.org/2000/svg">
<path d="M16.5398 2.88C16.5398 1.69 15.5998 0.75 14.4098 0.75C13.2198 0.75 12.2798 1.69 12.2798 2.88" stroke="white" stroke-width="1.5" stroke-miterlimit="10" stroke-linecap="round"/>
<path d="M8.46008 3.01001H20.3701C20.7201 3.01001 21.0001 3.29001 21.0001 3.64001V7.02001C21.0001 7.37001 20.7201 7.65001 20.3701 7.65001H8.46008C8.11008 7.65001 7.83008 7.37001 7.83008 7.02001V3.63001C7.83008 3.29001 8.11008 3.01001 8.46008 3.01001Z" stroke="white" stroke-width="1.5" stroke-miterlimit="10" stroke-linecap="round"/>
<path d="M6.2002 13.85L7.3902 15.23L10.4202 11.58" stroke="white" stroke-width="1.5" stroke-miterlimit="10" stroke-linecap="round"/>
<path d="M6.2002 21.81L7.3902 23.19L10.4202 19.72" stroke="white" stroke-width="1.5" stroke-miterlimit="10" stroke-linecap="round"/>
<path d="M6.2002 29.64L7.3902 31.08L10.4202 27.24" stroke="white" stroke-width="1.5" stroke-miterlimit="10" stroke-linecap="round"/>
<path d="M28.1401 9.01995V5.94995C28.1401 5.59995 27.8601 5.31995 27.5101 5.31995H21.0601" stroke="white" stroke-width="1.5" stroke-miterlimit="10" stroke-linecap="round"/>
<path d="M28.1402 38.41L27.9702 23.48" stroke="white" stroke-width="1.5" stroke-miterlimit="10" stroke-linecap="round"/>
<path d="M7.83 5.31995H1.38C1.03 5.31995 0.75 5.59995 0.75 5.94995V37.7899C0.75 38.1399 1.03 38.4199 1.38 38.4199H28.14" stroke="white" stroke-width="1.5" stroke-miterlimit="10" stroke-linecap="round"/>
<path d="M34.04 5.23998L37.83 7.47998C37.87 7.49998 37.88 7.54998 37.86 7.58998L28.19 23.94C28.17 23.98 28.12 23.99 28.08 23.97L24.29 21.73C24.25 21.71 24.24 21.66 24.26 21.62L33.93 5.26998C33.96 5.22998 34 5.21998 34.04 5.23998Z" stroke="white" stroke-width="1.5" stroke-miterlimit="10" stroke-linecap="round"/>
<path d="M24.3198 22.02V25.94C24.3198 26.01 24.3898 26.05 24.4498 26.02L27.8798 24.06C27.9398 24.03 27.9398 23.94 27.8798 23.91L24.4498 21.95C24.3898 21.91 24.3198 21.95 24.3198 22.02Z" stroke="white" stroke-width="1.5" stroke-miterlimit="10" stroke-linecap="round"/>
<path d="M12.2998 14.54H21.0698" stroke="white" stroke-width="1.5" stroke-miterlimit="10" stroke-linecap="round"/>
<path d="M12.2998 22.6899H21.0698" stroke="white" stroke-width="1.5" stroke-miterlimit="10" stroke-linecap="round"/>
<path d="M12.2998 30.21H21.0698" stroke="white" stroke-width="1.5" stroke-miterlimit="10" stroke-linecap="round"/>
</svg>
