<svg width="49" height="38" viewBox="0 0 49 38" fill="none" xmlns="http://www.w3.org/2000/svg">
<path d="M47.93 15.51L36.04 24.13L48.05 32.58L47.93 15.51Z" stroke="white" stroke-width="1.5" stroke-miterlimit="10" stroke-linecap="round"/>
<path d="M30.4701 11.2499L5.51015 11.4299C3.00015 11.4499 0.980147 13.0499 1.00015 15.0199L1.13015 32.7799C1.14015 34.7399 3.19015 36.3199 5.69015 36.2999L30.6501 36.1199C33.1601 36.0999 35.1801 34.4999 35.1601 32.5299L35.0301 14.7699C35.0201 12.8099 32.9801 11.2299 30.4701 11.2499Z" stroke="white" stroke-width="1.5" stroke-miterlimit="10" stroke-linecap="round"/>
<path d="M11.4999 10.74C14.1675 10.74 16.3299 8.57749 16.3299 5.90996C16.3299 3.24242 14.1675 1.07996 11.4999 1.07996C8.83239 1.07996 6.66992 3.24242 6.66992 5.90996C6.66992 8.57749 8.83239 10.74 11.4999 10.74Z" stroke="white" stroke-width="1.5" stroke-miterlimit="10" stroke-linecap="round"/>
<path d="M22.9604 10.66C25.6279 10.66 27.7904 8.49754 27.7904 5.83C27.7904 3.16246 25.6279 1 22.9604 1C20.2928 1 18.1304 3.16246 18.1304 5.83C18.1304 8.49754 20.2928 10.66 22.9604 10.66Z" stroke="white" stroke-width="1.5" stroke-miterlimit="10" stroke-linecap="round"/>
</svg>
