<svg width="210" height="197" viewBox="0 0 210 197" fill="none" xmlns="http://www.w3.org/2000/svg">
<path d="M56.3132 10.1005C82.6788 -0.730625 122.014 -5.04393 154.406 8.34325C186.209 21.4748 196.1 45.3098 201.864 59.1762C215.686 92.5004 217.324 150.458 162.463 180.076C157.551 182.728 115.431 204.774 70.7897 194.102C14.8487 180.747 0.37218 126.879 0.0119048 98.8904C-0.0863522 88.9858 -0.774142 33.5521 56.3132 10.1005Z" fill="#DA6016" fill-opacity="0.25"/>
<path d="M116.25 87.9953C119.886 97.8999 123.488 107.773 127.124 117.677C127.779 116.846 128.401 116.016 129.056 115.185C120.115 115.409 111.206 115.632 102.265 115.856C99.6775 115.92 99.6775 119.85 102.265 119.786C111.206 119.562 120.115 119.339 129.056 119.115C130.268 119.083 131.447 117.869 130.989 116.623C127.353 106.718 123.75 96.8455 120.115 86.9409C119.755 85.9504 118.739 85.2795 117.626 85.567C116.676 85.8546 115.89 87.0048 116.25 87.9953Z" fill="#DA6016"/>
<path d="M73.1804 139.052C78.5845 147.838 88.8688 153.238 99.3168 153.398C102.297 153.43 105.31 153.014 108.16 152.184C110.616 151.449 109.568 147.647 107.079 148.413C98.3669 151.033 88.443 148.733 81.6305 142.854C79.6653 141.161 77.995 139.244 76.6849 137.071C75.3421 134.898 71.8375 136.879 73.1804 139.052Z" fill="#DA6016"/>
<path d="M70.5602 61.6993C72.6042 61.6993 74.2613 60.0829 74.2613 58.0889C74.2613 56.0949 72.6042 54.4785 70.5602 54.4785C68.5162 54.4785 66.8592 56.0949 66.8592 58.0889C66.8592 60.0829 68.5162 61.6993 70.5602 61.6993Z" fill="#DA6016"/>
<path d="M143.304 61.6993C145.348 61.6993 147.005 60.0829 147.005 58.0889C147.005 56.0949 145.348 54.4785 143.304 54.4785C141.26 54.4785 139.603 56.0949 139.603 58.0889C139.603 60.0829 141.26 61.6993 143.304 61.6993Z" fill="#DA6016"/>
</svg>
